<svg width="605" height="398" viewBox="0 0 605 398" fill="none" xmlns="http://www.w3.org/2000/svg">
<path d="M659.189 321.456C659.189 347.84 766.178 471.5 584.5 471.5C402.822 471.5 -20 428 7.3498 315.075C7.3498 288.69 150.361 349.44 332.04 349.44C513.718 349.44 659.189 295.047 659.189 321.456Z" fill="#E3E4E6" />
<path d="M96.155 108.298C96.6846 108.298 97.1139 107.869 97.1139 107.34C97.1139 106.811 96.6846 106.383 96.155 106.383C95.6254 106.383 95.196 106.811 95.196 107.34C95.196 107.869 95.6254 108.298 96.155 108.298Z" fill="#E7EFFD"/>
<path d="M200.916 136.656H199.451V135.194H199.189V136.656H197.724V136.918H199.189V138.381H199.451V136.918H200.916V136.656Z" fill="#E7EFFD"/>
<path d="M505.439 106.252H503.974V104.789H503.706V106.252H502.247V106.514H503.706V107.976H503.974V106.514H505.439V106.252Z" fill="#E7EFFD"/>
<path d="M426.05 322.996C426.05 322.996 405.615 327.931 397.527 337.166C394.817 340.252 390.796 342.476 386.645 344.064V330.132C391.321 322.294 396.032 313.576 396.032 313.576C396.246 313.148 397.95 307.136 397.95 307.136C401.785 304.128 397.735 293.614 397.735 293.614C397.735 293.614 400.082 286.96 398.801 285.67C397.521 284.379 398.587 280.948 399.653 279.444C400.719 277.939 400.505 276.007 400.505 274.722C400.505 273.438 398.801 271.499 396.032 270.429C393.262 269.358 396.246 267.64 397.95 267.206C399.653 266.772 400.082 262.698 398.164 260.552C396.246 258.405 398.378 257.12 399.439 254.76C400.499 252.399 396.014 252.827 396.014 252.827V231.122C396.014 231.122 394.733 224.04 393.459 211.588C392.184 199.136 387.282 197.852 387.282 197.852C384.657 197.038 382.095 196.032 379.617 194.843C377.008 193.622 374.303 192.618 371.528 191.84C371.528 191.84 365.781 191.84 361.093 190.401C356.406 188.962 353.976 188.861 353.976 188.861L353.208 188.48C347.444 185.554 342.877 180.719 340.289 174.803C340.158 174.506 340.039 174.208 339.92 173.923C341.192 172.531 342.331 171.021 343.32 169.416V169.38C343.32 169.6 343.32 169.82 343.32 170.04C343.32 170.129 343.32 170.224 343.32 170.314C343.32 170.843 343.32 171.372 343.32 171.901V171.955C346.715 165.967 356.567 164.599 357.502 157.76C357.544 157.449 357.566 157.135 357.567 156.821V156.779C357.567 156.553 357.567 156.321 357.567 156.09C357.442 154.181 356.787 152.278 356.662 150.351C356.62 149.799 356.62 149.244 356.662 148.692V148.728C357.103 143.418 361.111 138.797 362.946 133.642C363.439 132.255 363.761 130.813 363.905 129.348V129.307C363.952 128.866 363.982 128.42 363.994 127.975C363.994 127.867 363.994 127.754 363.994 127.647C363.994 127.338 363.994 127.053 363.994 126.72C363.938 123.977 363.32 121.274 362.178 118.779C361.036 116.283 359.394 114.048 357.353 112.21C353.958 109.267 349.473 107.417 347.12 103.57C346.024 101.786 345.488 99.6692 344.291 97.9447C342.04 94.686 337.906 93.36 333.993 92.8902C330.08 92.4204 326.06 92.575 322.319 91.35C319.663 90.4819 317.257 88.9417 314.576 88.1687C311.656 87.3885 308.567 87.5189 305.723 88.5426C302.879 89.5662 300.417 91.434 298.668 93.8951C297.256 95.9526 296.333 98.4145 294.427 100.02C290.526 103.314 283.909 101.887 280.49 105.681C278.614 107.768 278.399 110.611 278.625 113.513C278.625 113.548 278.625 113.584 278.625 113.62C278.625 113.84 278.667 114.066 278.691 114.292C278.691 114.399 278.691 114.506 278.691 114.607C278.691 114.708 278.691 114.833 278.733 114.946C278.852 115.986 279.001 117.021 279.132 118.02C279.132 118.175 279.167 118.323 279.185 118.478L279.293 119.412C279.293 119.638 279.328 119.863 279.352 120.089C279.376 120.315 279.394 120.684 279.412 120.934C279.43 121.184 279.412 121.374 279.453 121.6C279.835 129.524 278.153 137.412 274.569 144.494C271.347 150.803 266.558 156.619 265.725 163.665C265.595 164.82 265.563 165.984 265.629 167.144C265.629 167.281 265.629 167.418 265.629 167.554C265.629 167.691 265.665 167.971 265.683 168.179C265.701 168.387 265.731 168.66 265.76 168.898C265.76 169.035 265.796 169.172 265.814 169.309C265.856 169.624 265.903 169.939 265.957 170.26L265.993 170.462C266.838 175.267 268.756 179.977 269.775 184.829C270.157 186.618 270.411 188.433 270.537 190.258C270.534 190.27 270.534 190.282 270.537 190.294C270.573 190.888 270.603 191.453 270.621 192.036C270.621 192.821 270.621 193.612 270.621 194.415C269.004 195.035 267.346 195.544 265.659 195.937C262.681 196.365 253.943 204.096 254.581 206.046C255.218 207.996 250.674 221.507 250.549 221.917L243.401 271.273C243.401 271.273 239.607 274.924 240.792 277.285C241.978 279.646 240.56 283.725 240.56 283.725C240.56 283.725 234.151 286.514 235.575 288.233C236.998 289.951 236.349 293.168 235.372 295.315C234.396 297.461 232.793 301.327 235.372 301.969C237.951 302.611 235.813 310.99 235.813 310.99C235.813 310.99 244.801 309.955 244.152 315.283C243.937 316.978 250.435 321.64 253.145 323.507V349.16C249.506 348.143 245.23 346.823 242.502 345.551C236.969 342.976 205.884 338.04 199.07 352.853C192.256 367.666 208.439 387.414 212.483 389.561C212.483 389.561 216.319 392.564 217.171 394.068C218.022 395.573 222.918 396.001 222.918 396.001C222.918 396.001 228.029 398.379 229.303 399.646C230.244 400.597 238.029 403.065 247.255 404.998C247.255 404.998 239.804 422.124 251.96 420.714C264.116 419.305 270.037 413.329 278.608 413.329C282.032 413.329 288.393 412.847 294.796 412.276C296.405 412.56 297.995 412.936 299.561 413.4C303.168 414.533 306.873 415.329 310.628 415.779C310.628 415.779 320.211 420.929 325.321 419.638C325.743 419.52 326.136 419.317 326.477 419.044H326.596C327.525 418.812 328.579 417.854 329.675 416.409C336.066 417.063 343.374 417.991 346.09 419.049C351.385 421.089 389.26 418.265 389.26 418.265C389.26 418.265 413.727 418.746 420.738 420.863C427.748 422.98 425.258 399.248 412.322 396.578C408.868 395.886 405.355 395.54 401.833 395.543C402.729 394.62 403.548 393.626 404.281 392.57C408.939 392.148 412.024 391.886 412.024 391.886C412.024 391.886 424.371 385.874 431.399 382.223C435.886 379.786 439.917 376.591 443.311 372.78C443.311 372.78 449.482 368.915 452.037 367.428C454.592 365.941 455.867 360.988 455.867 360.988C475.23 317.192 426.05 322.996 426.05 322.996ZM370.611 268.062C370.611 267.342 370.611 266.617 370.611 265.897C371.302 266.385 371.201 267.152 370.611 268.056V268.062ZM370.814 283.243C371.332 283.921 371.832 284.54 372.19 285.027C373.565 286.811 371.076 287.644 371.254 290.599C371.296 291.259 371.356 292.181 371.415 293.204C371.153 288.94 370.939 285.432 370.814 283.237V283.243Z" fill="url(#paint0_linear)"/>
<path d="M259.995 350.986C259.995 350.986 248.083 348.221 242.538 345.67C236.993 343.119 205.92 338.231 199.106 352.901C192.292 367.571 208.475 387.117 212.519 389.246C216.563 391.375 255.951 362.243 255.951 362.243L287.018 375.325L292.974 355.024L259.995 350.986Z" fill="#162F54"/>
<path d="M386.448 355.024H295.076C282.961 355.024 273.14 364.829 273.14 376.924V380.094C273.14 392.19 282.961 401.995 295.076 401.995H386.448C398.563 401.995 408.385 392.19 408.385 380.094V376.924C408.385 364.829 398.563 355.024 386.448 355.024Z" fill="#233C5A"/>
<path opacity="0.1" d="M408.385 378.506C408.389 383.126 407.026 387.645 404.466 391.493C403.595 392.798 402.597 394.013 401.488 395.121C399.305 397.305 396.713 399.038 393.858 400.219C391.003 401.399 387.942 402.005 384.852 402.001H296.666C290.427 402.001 284.443 399.526 280.031 395.121C275.619 390.716 273.14 384.742 273.14 378.512C273.14 372.283 275.619 366.308 280.031 361.903C284.443 357.498 290.427 355.024 296.666 355.024H384.858C391.097 355.024 397.08 357.497 401.492 361.901C405.904 366.305 408.383 372.278 408.385 378.506Z" fill="black"/>
<path d="M334.75 379.88C334.75 379.88 321.188 383.359 310.121 383.204C299.055 383.049 247.291 404.522 247.291 404.522C247.291 404.522 239.839 421.482 251.996 420.078C264.152 418.675 270.073 412.788 278.643 412.788C287.214 412.788 314.177 409.815 314.177 409.815L340.122 390.679L334.75 379.88Z" fill="#030903"/>
<path d="M343.237 219.842L318.912 224.629L317.334 224.944C317.334 224.944 298.102 219.842 297.465 219.414C296.827 218.986 279.37 195.503 279.37 195.503C279.37 195.503 288.197 195.598 295.13 191.608C295.38 191.465 295.624 191.311 295.868 191.162C298.917 189.326 301.233 186.491 302.42 183.14C302.545 182.789 302.652 182.427 302.754 182.046C303.492 179.204 303.54 175.761 302.551 171.592C300.169 161.679 305.648 158.95 312.909 159.188C323.397 159.533 337.674 166.068 337.674 166.068C337.859 169.404 338.619 172.682 339.92 175.761C340.033 176.046 340.158 176.355 340.289 176.629C342.893 182.497 347.46 187.28 353.208 190.157L353.976 190.538C354.75 190.906 355.566 191.257 356.412 191.572C374.959 198.589 343.237 219.842 343.237 219.842Z" fill="#DFC7BA"/>
<path opacity="0.1" d="M340.313 176.629C335.687 181.857 329.412 185.353 322.526 186.537C315.64 187.721 308.555 186.522 302.444 183.14C303.492 180.096 303.689 176.308 302.575 171.592C296.827 147.36 337.716 166.068 337.716 166.068C337.917 169.718 338.798 173.3 340.313 176.629Z" fill="black"/>
<path d="M347.99 155.102C348 160.829 346.39 166.442 343.344 171.295C342.353 172.886 341.214 174.381 339.943 175.761C334.579 181.631 327.127 185.174 319.18 185.632C318.585 185.673 317.948 185.691 317.328 185.691C311.265 185.691 305.338 183.896 300.297 180.533C295.255 177.17 291.326 172.39 289.006 166.797C286.685 161.205 286.078 155.051 287.261 149.114C288.444 143.176 291.364 137.723 295.651 133.442C299.938 129.162 305.401 126.247 311.347 125.066C317.294 123.885 323.458 124.491 329.06 126.808C334.661 129.124 339.449 133.047 342.818 138.08C346.186 143.114 347.984 149.031 347.984 155.085L347.99 155.102Z" fill="#DFC7BA"/>
<path opacity="0.1" d="M343.237 219.842L318.912 224.629L317.334 224.944C317.334 224.944 298.102 219.842 297.465 219.414C296.827 218.986 279.37 195.503 279.37 195.503C279.37 195.503 288.197 195.598 295.13 191.608C295.38 191.465 295.624 191.311 295.868 191.162C298.072 193.541 305.285 200.266 316.619 200.218C318.074 200.219 319.528 200.114 320.967 199.903C324.386 199.38 327.835 199.041 331.277 198.714C337.871 198.024 347.954 196.026 353.249 190.211L354.018 190.591C354.792 190.96 355.608 191.311 356.454 191.626C374.959 198.589 343.237 219.842 343.237 219.842Z" fill="black"/>
<path d="M370.701 281.905C370.909 286.585 374.322 339.295 374.322 339.295H268.083L268.804 306.108L269.4 279.563L269.59 270.851L270.442 240.672L267.363 237.961L250.626 223.237C250.751 222.845 255.29 209.412 254.658 207.521C254.027 205.63 262.753 197.959 265.737 197.531C267.432 197.138 269.1 196.631 270.728 196.014C275.749 194.23 282.449 191.661 283.188 192.066C284.23 192.625 294.677 191.656 295.1 191.614C295.1 191.614 302.807 201.562 316.578 201.503C318.028 201.496 319.475 201.38 320.908 201.158C324.327 200.635 327.775 200.296 331.218 199.939C338.145 199.219 348.913 197.049 353.958 190.544C353.958 190.544 356.394 190.645 361.076 192.066C365.757 193.487 371.511 193.493 371.511 193.493C374.283 194.263 376.988 195.257 379.599 196.466C382.079 197.642 384.64 198.635 387.264 199.439C387.264 199.439 392.16 200.712 393.441 213.039C394.721 225.366 396.014 232.383 396.014 232.383L370.701 254.272C370.701 254.272 370.492 277.208 370.701 281.905Z" fill="#F0C220"/>
<path d="M250.632 318.679L254.354 324.631L268.298 329.537L277.881 312.09L269.048 306.137L254.89 300.613L246.802 305.287L250.632 318.679Z" fill="#DFC7BA"/>
<path d="M369.634 348.007C369.634 348.007 389.432 346.52 397.527 337.38C405.621 328.241 426.05 323.352 426.05 323.352C426.05 323.352 475.23 317.614 455.831 360.976C455.831 360.976 454.556 365.864 452.001 367.351C449.446 368.837 443.275 372.667 443.275 372.667L367.734 366.078L369.634 348.007Z" fill="#162F54"/>
<path opacity="0.1" d="M408.385 378.506C408.389 383.126 407.026 387.645 404.466 391.493C391.755 392.617 363.607 395.258 357.716 396.899C350.48 398.903 335.834 395.412 334.231 395.02L334.083 394.984C334.083 394.984 331.259 386.433 329.913 380.962C329.318 378.477 329.002 376.627 329.395 376.49C330.676 376.068 342.385 372.875 342.171 374.706C341.956 376.538 377.312 360.994 377.312 360.994L378.396 374.599C381.987 378.702 408.385 372.601 408.385 378.506Z" fill="black"/>
<path d="M444.788 367.137L443.299 372.667C439.898 376.445 435.868 379.608 431.387 382.015C424.359 385.63 412.012 391.583 412.012 391.583C412.012 391.583 366.668 395.406 359.003 397.529C351.337 399.652 335.369 395.614 335.369 395.614C335.369 395.614 329.413 377.549 330.688 377.121C331.962 376.693 343.672 373.511 343.463 375.337C343.255 377.162 378.604 361.624 378.604 361.624L444.788 367.137Z" fill="#162F54"/>
<path d="M318.537 414.792C318.537 414.792 340.825 416.344 346.126 418.36C351.427 420.376 389.295 417.587 389.295 417.587C389.295 417.587 413.763 418.062 420.773 420.156C427.784 422.249 425.294 398.748 412.357 396.114C399.421 393.48 381.189 397.357 381.189 397.357C381.189 397.357 360.617 394.71 358.121 394.383C355.626 394.056 339.193 394.532 339.193 394.532L318.537 414.792Z" fill="black"/>
<path opacity="0.1" d="M230.953 356.13C230.953 356.13 260.412 358.776 268.512 363.598L230.953 356.13Z" fill="black"/>
<path opacity="0.1" d="M414.698 336.839C414.698 336.839 391.63 342.441 382.589 350.683L414.698 336.839Z" fill="black"/>
<path opacity="0.1" d="M232.668 349.44C233.139 349.594 246.23 351.307 245.915 352.55C245.599 353.793 232.668 349.44 232.668 349.44Z" fill="black"/>
<path opacity="0.1" d="M212.096 382.229L213.8 388.609C213.8 388.609 217.629 391.583 218.481 393.069C219.333 394.556 224.229 394.984 224.229 394.984C224.229 394.984 229.339 397.321 230.619 398.594C231.9 399.866 245.73 403.91 258.72 405.61C271.711 407.311 295.761 410.498 300.871 412.199C304.482 413.317 308.189 414.099 311.944 414.536C311.944 414.536 321.521 419.638 326.632 418.366C331.742 417.093 340.468 393.92 340.468 393.92C340.468 393.92 306.834 386.058 305.767 383.507C304.701 380.956 272.342 369.057 272.342 369.057L253.181 369.509L212.096 382.229Z" fill="black"/>
<path d="M210.816 382.865L212.519 389.246C212.519 389.246 216.355 392.219 217.206 393.705C218.058 395.192 222.954 395.62 222.954 395.62C222.954 395.62 228.064 397.957 229.339 399.236C230.614 400.514 244.456 404.546 257.44 406.247C270.424 407.947 294.487 411.135 299.597 412.835C303.206 413.95 306.911 414.73 310.663 415.166C310.663 415.166 320.247 420.263 325.357 418.99C330.467 417.717 339.193 394.544 339.193 394.544C339.193 394.544 305.553 386.683 304.493 384.132C303.433 381.581 255.951 362.243 255.951 362.243L241.061 358.841L210.816 382.865Z" fill="#162F54"/>
<path d="M254.349 221.114L250.626 223.243L243.479 272.129C243.479 272.129 239.685 275.745 240.87 278.076C242.055 280.407 240.638 284.451 240.638 284.451C240.638 284.451 234.229 287.216 235.652 288.916C237.076 290.617 236.427 293.804 235.45 295.927C234.473 298.05 232.871 301.874 235.45 302.516C238.029 303.158 235.891 311.436 235.891 311.436C235.891 311.436 244.878 310.413 244.229 315.682C243.961 317.81 254.39 324.601 254.39 324.601C254.39 324.601 242.538 303.134 269.09 306.108L271.371 294.007C271.371 294.007 273.652 287.192 271.371 285.087C269.09 282.982 271.883 272.867 271.883 272.867L272.384 228.976L254.349 221.114Z" fill="#F0C220"/>
<path opacity="0.1" d="M248.565 284.248C249.036 285.027 263.372 286.627 264.307 289.166C265.242 291.705 248.565 284.248 248.565 284.248Z" fill="black"/>
<path opacity="0.1" d="M244.045 296.385C244.045 296.385 245.992 290.314 250.596 291.402C255.2 292.49 244.045 296.385 244.045 296.385Z" fill="black"/>
<path opacity="0.1" d="M241.555 305.251C241.555 305.251 244.98 297.158 249.655 297.783C254.331 298.407 241.555 305.251 241.555 305.251Z" fill="black"/>
<path d="M397.527 305.073L396.032 313.993C396.032 313.993 380.707 342.054 377.937 342.477C375.168 342.899 360.069 323.775 360.069 323.775L356.025 305.067L371.945 302.052L379.015 295.077C379.015 295.077 396.884 296.784 397.527 305.073Z" fill="#DFC7BA"/>
<path d="M390.284 228.345L396.032 232.383V253.85C396.032 253.85 400.505 253.422 399.439 255.765C398.373 258.108 396.246 259.374 398.164 261.503C400.082 263.632 399.653 267.664 397.95 268.092C396.246 268.52 393.268 270.215 396.032 271.279C398.795 272.344 400.505 274.252 400.505 275.531C400.505 276.809 400.719 278.718 399.653 280.205C398.587 281.691 397.527 285.093 398.801 286.371C400.076 287.65 397.735 294.233 397.735 294.233C397.735 294.233 401.785 304.651 397.95 307.624C397.95 307.624 396.246 313.571 396.032 313.999C396.032 313.999 398.718 293.311 371.934 302.058C371.934 302.058 371.439 294.173 371.255 291.253C371.07 288.334 373.566 287.477 372.19 285.735C370.814 283.993 367.371 279.991 368.997 278.932C370.623 277.874 370.063 275.959 369.42 274.466C368.777 272.974 366.531 272.98 368.568 271.172C370.605 269.364 371.814 267.67 370.617 266.819C369.42 265.969 367.341 263.198 368.997 261.925C370.653 260.653 370.701 242.159 370.701 242.159C370.701 242.159 377.514 214.954 390.284 228.345Z" fill="#F0C220"/>
<path opacity="0.1" d="M387.58 264.916C387.58 264.916 395.764 262.698 396.032 264.916C396.3 267.134 387.58 264.916 387.58 264.916Z" fill="black"/>
<path opacity="0.1" d="M378.384 271.023C378.384 271.023 389.605 268.223 391.005 270.399C392.405 272.575 378.384 271.023 378.384 271.023Z" fill="black"/>
<path opacity="0.1" d="M375.888 276.934C375.888 276.934 392.72 274.597 393.81 278.022C394.9 281.448 375.888 276.934 375.888 276.934Z" fill="black"/>
<path opacity="0.1" d="M378.384 284.248C379.009 284.403 394.59 285.491 394.9 288.447C395.21 291.402 378.384 284.248 378.384 284.248Z" fill="black"/>
<path d="M380.415 293.828H259.423C255.979 293.828 253.187 296.616 253.187 300.054V363.283C253.187 366.722 255.979 369.509 259.423 369.509H380.415C383.859 369.509 386.651 366.722 386.651 363.283V300.054C386.651 296.616 383.859 293.828 380.415 293.828Z" fill="#768397"/>
<path opacity="0.1" d="M275.534 247.44C275.534 247.44 288.328 257.204 298.221 249.765C298.221 249.765 281.496 251.281 275.534 247.44Z" fill="black"/>
<path opacity="0.1" d="M340.313 250.068C340.313 250.068 353.1 259.826 362.993 252.387C362.993 252.387 346.275 253.909 340.313 250.068Z" fill="black"/>
<path opacity="0.1" d="M347.99 155.102C348 160.829 346.39 166.442 343.344 171.295C343.088 162.773 341.081 154.246 336.435 147.128C332.183 140.587 319.252 129.176 310.365 132.357C309.436 132.697 308.6 133.251 307.925 133.975C307.25 134.698 306.756 135.57 306.482 136.52C305.601 139.862 308.18 141.277 309.835 143.911C312.643 148.476 313.74 153.886 312.933 159.182C312.82 159.894 312.671 160.601 312.486 161.299C311.086 166.543 307.882 172.543 311.187 176.843C313.492 179.816 318.448 180.875 319.121 184.573C319.182 184.923 319.202 185.278 319.18 185.632C319.026 188.135 316.887 190.341 315.952 192.797C314.856 195.693 315.476 198.571 316.613 201.479C318.091 205.273 320.449 209.108 321.021 213.116C321.593 217.124 320.36 220.847 318.906 224.611C317.531 228.179 315.928 231.717 315.392 235.434C314.362 242.498 316.959 250.669 312.504 256.246C312.051 256.921 311.352 257.393 310.556 257.561C307.703 257.858 308.174 252.738 305.892 251.019C306.137 253.993 306.369 257.097 305.297 259.88C304.225 262.663 301.402 265.029 298.447 264.56L297.429 257.882C295.419 259.857 292.999 261.37 290.341 262.312C291.388 255.21 293.907 248.405 297.739 242.332C290.24 245.935 285.868 253.737 281.967 261.075C279.537 265.66 277.017 270.667 277.869 275.787C278.215 277.874 279.114 279.86 279.31 281.959C279.507 284.058 278.745 286.514 276.785 287.311C275.076 288.007 273.08 287.174 271.847 285.783L271.633 285.527C271.514 285.372 271.401 285.212 271.294 285.051C271.081 284.728 270.892 284.39 270.728 284.04C270.195 282.783 269.796 281.474 269.537 280.133L269.405 279.539C267.422 270.851 265.635 261.89 267.089 253.101C267.625 249.866 268.601 246.655 268.482 243.372C268.393 241.521 268.015 239.696 267.363 237.961C265.623 233.097 262.276 228.631 260.37 223.731C260.349 223.698 260.333 223.662 260.322 223.624C259.322 221.031 258.827 217.79 260.68 215.709C261.633 214.633 263.062 214.092 264.253 213.33C267.958 210.922 269.614 206.349 270.299 201.985C270.607 200.017 270.763 198.029 270.763 196.038C275.784 194.254 282.485 191.685 283.224 192.09C284.266 192.649 294.713 191.679 295.136 191.638C298.316 189.806 301.092 187.112 302.45 183.17C302.575 182.819 302.682 182.456 302.783 182.076C298.015 179.507 294.013 175.722 291.187 171.107C288.36 166.492 286.809 161.211 286.691 155.803C286.574 150.395 287.894 145.052 290.518 140.319C293.142 135.586 296.975 131.631 301.628 128.859C306.28 126.086 311.586 124.594 317.004 124.535C322.422 124.476 327.759 125.851 332.471 128.521C337.184 131.191 341.103 135.061 343.83 139.735C346.557 144.41 347.995 149.722 347.996 155.132L347.99 155.102Z" fill="black"/>
<path d="M312.486 160.026C311.08 165.271 307.882 171.271 311.193 175.576C313.498 178.549 318.454 179.602 319.115 183.307C319.645 186.28 317.018 188.73 315.958 191.525C313.433 198.203 320.02 204.768 321.021 211.838C322.111 219.509 316.512 226.496 315.398 234.161C314.368 241.226 316.965 249.39 312.51 254.974C312.06 255.651 311.359 256.124 310.562 256.288C307.709 256.591 308.18 251.471 305.898 249.747C306.143 252.72 306.375 255.824 305.303 258.607C304.231 261.39 301.407 263.751 298.453 263.287L297.435 256.603C295.425 258.579 293.006 260.092 290.347 261.033C291.394 253.935 293.911 247.132 297.739 241.059C290.24 244.663 285.874 252.464 281.973 259.796C279.537 264.381 277.023 269.394 277.869 274.514C278.215 276.601 279.114 278.581 279.31 280.686C279.507 282.792 278.745 285.236 276.785 286.038C274.998 286.782 272.836 285.795 271.633 284.254C270.43 282.714 269.965 280.752 269.531 278.855C267.494 269.983 265.594 260.825 267.077 251.846C267.613 248.605 268.589 245.394 268.47 242.117C268.214 234.94 262.907 229.035 260.322 222.357C259.316 219.759 258.827 216.524 260.68 214.443C261.633 213.366 263.062 212.825 264.253 212.064C267.952 209.65 269.614 205.083 270.293 200.718C271.025 196 270.889 191.188 269.894 186.518C268.399 179.531 264.968 172.704 265.82 165.61C266.654 158.629 271.442 152.872 274.665 146.623C278.81 138.534 280.401 129.379 279.227 120.369C278.673 116.177 277.702 111.324 280.549 108.191C283.968 104.432 290.585 105.848 294.487 102.589C296.392 101.001 297.316 98.5572 298.727 96.5235C300.491 94.0803 302.957 92.2297 305.798 91.2166C308.639 90.2036 311.721 90.0759 314.636 90.8505C317.316 91.6176 319.722 93.1399 322.379 94.0022C326.119 95.1915 330.122 95.0607 334.053 95.5304C337.984 96.0002 342.099 97.3144 344.351 100.531C345.542 102.244 346.084 104.331 347.18 106.103C349.533 109.909 354.018 111.741 357.413 114.66C360.324 117.252 362.406 120.642 363.4 124.408C364.393 128.174 364.254 132.149 362.999 135.836C360.974 141.467 356.287 146.45 356.686 152.421C356.847 154.876 357.877 157.285 357.555 159.717C356.614 166.49 346.769 167.84 343.368 173.774C343.642 164.046 341.772 154.026 336.453 145.873C332.2 139.332 319.27 127.915 310.383 131.096C309.455 131.438 308.62 131.993 307.945 132.716C307.271 133.439 306.776 134.31 306.5 135.259C305.618 138.595 308.197 140.016 309.853 142.65C311.438 145.222 312.488 148.085 312.941 151.071C313.393 154.056 313.238 157.102 312.486 160.026Z" fill="#2C2525"/>
<g opacity="0.2">
<path opacity="0.2" d="M270.728 193.731C270.802 190.675 270.516 187.622 269.876 184.633C268.607 178.686 265.951 172.865 265.707 166.894C265.361 173.542 268.476 179.977 269.876 186.518C270.384 188.89 270.669 191.305 270.728 193.731Z" fill="black"/>
<path opacity="0.2" d="M296.101 241.987C296.619 241.041 297.155 240.102 297.733 239.186C290.24 242.789 285.868 250.591 281.967 257.929C279.709 262.169 277.393 266.784 277.738 271.505C278.024 267.455 280.019 263.507 281.967 259.838C285.576 253.053 289.591 245.882 296.101 241.987Z" fill="black"/>
<path opacity="0.2" d="M279.275 280.443C279.048 282.048 278.25 283.571 276.785 284.171C274.998 284.908 272.836 283.927 271.639 282.387C270.442 280.847 269.965 278.891 269.531 276.988C268.077 270.649 266.696 264.155 266.553 257.691C266.41 264.786 267.922 271.933 269.531 278.902C269.965 280.799 270.436 282.768 271.639 284.302C272.842 285.836 274.98 286.823 276.785 286.086C278.745 285.283 279.513 282.839 279.316 280.734C279.275 280.633 279.275 280.538 279.275 280.443Z" fill="black"/>
<path opacity="0.2" d="M313.177 153.64C313.107 155.166 312.876 156.681 312.486 158.159C311.449 162.042 309.424 166.347 309.788 170.052C310.074 166.817 311.622 163.297 312.486 160.056C313.038 157.964 313.271 155.801 313.177 153.64Z" fill="black"/>
<path opacity="0.2" d="M279.579 125.263C279.628 122.995 279.505 120.727 279.209 118.478C278.989 116.825 278.709 115.065 278.614 113.346C278.477 115.636 278.894 118.103 279.209 120.393C279.422 122.008 279.545 123.634 279.579 125.263Z" fill="black"/>
<path opacity="0.2" d="M319.121 183.366C319.121 183.313 319.121 183.271 319.079 183.217C318.627 185.43 316.804 187.451 315.964 189.675C315.466 191.003 315.286 192.429 315.44 193.838C315.512 193.068 315.688 192.312 315.964 191.59C317.018 188.789 319.645 186.316 319.121 183.366Z" fill="black"/>
<path opacity="0.2" d="M268.47 240.25C268.208 233.073 262.907 227.168 260.316 220.49C259.903 219.439 259.623 218.34 259.483 217.22C259.339 218.99 259.625 220.768 260.316 222.405C262.866 228.994 268.024 234.791 268.441 241.808C268.47 241.291 268.488 240.768 268.47 240.25Z" fill="black"/>
<path opacity="0.2" d="M336.453 144.006C332.194 137.465 319.27 126.048 310.383 129.229C309.454 129.571 308.618 130.125 307.942 130.848C307.267 131.571 306.771 132.442 306.494 133.392C306.284 134.12 306.262 134.889 306.428 135.628C306.428 135.521 306.464 135.414 306.494 135.307C306.77 134.357 307.266 133.485 307.941 132.762C308.617 132.039 309.453 131.485 310.383 131.144C319.27 127.963 332.194 139.398 336.453 145.921C341.266 153.307 343.249 162.22 343.38 171.063C343.505 161.578 341.605 151.903 336.453 144.006Z" fill="black"/>
<path opacity="0.2" d="M357.538 157.832C356.602 164.587 346.817 165.949 343.38 171.848C343.38 172.496 343.38 173.15 343.38 173.798C346.775 167.852 356.626 166.514 357.561 159.741C357.645 159.075 357.645 158.402 357.561 157.737C357.556 157.769 357.548 157.801 357.538 157.832Z" fill="black"/>
<path opacity="0.2" d="M362.981 133.945C360.956 139.582 356.269 144.559 356.668 150.536C356.668 150.619 356.668 150.708 356.668 150.797C357.109 145.535 361.117 140.968 362.952 135.86C363.778 133.526 364.132 131.052 363.994 128.581C363.929 130.41 363.587 132.218 362.981 133.945Z" fill="black"/>
<path opacity="0.2" d="M312.51 253.119C312.06 253.797 311.36 254.272 310.562 254.439C307.709 254.742 308.18 249.622 305.898 247.897C305.958 248.575 306.012 249.259 306.047 249.943C308.168 251.775 307.775 256.645 310.562 256.347C310.957 256.267 311.333 256.11 311.667 255.884C312.001 255.659 312.288 255.369 312.51 255.033C315.053 251.846 315.297 247.82 315.232 243.64C315.166 247.124 314.66 250.449 312.51 253.119Z" fill="black"/>
<path opacity="0.2" d="M305.297 256.758C304.213 259.547 301.401 261.907 298.441 261.438C298.104 259.214 297.766 256.986 297.429 254.754C295.506 256.638 293.212 258.102 290.692 259.053C290.561 259.731 290.436 260.415 290.335 261.099C292.996 260.157 295.417 258.645 297.429 256.669C297.766 258.9 298.104 261.128 298.441 263.352C301.419 263.816 304.213 261.461 305.297 258.673C305.962 256.73 306.228 254.673 306.077 252.625C306.046 254.036 305.782 255.432 305.297 256.758Z" fill="black"/>
<path opacity="0.2" d="M315.398 232.306C315.169 234.102 315.083 235.913 315.142 237.723C315.152 236.551 315.237 235.381 315.398 234.221C316.465 226.912 321.593 220.223 321.128 212.974C320.717 219.527 316.369 225.646 315.398 232.306Z" fill="black"/>
</g>
<path d="M492.502 333.699C492.502 333.699 488.458 352.508 506.458 354.738L507.571 352.651C507.571 352.651 493.634 339.569 492.502 333.699Z" fill="#114209"/>
<path d="M513.313 352.526L509.144 353.412L508.727 353.501C508.727 353.501 497.559 344.451 497.702 324.244C499.197 327.222 500.982 330.044 503.033 332.671C507.446 338.516 512.479 346.324 513.313 352.526Z" fill="#114209"/>
<path d="M514.73 354.465C514.401 354.677 514.027 354.814 513.638 354.864C513.248 354.915 512.852 354.878 512.479 354.756C501.758 352.247 505.362 317.293 505.362 317.293C505.957 317.573 506.606 322.05 509.078 327.759C513.414 337.862 518.179 351.931 514.73 354.465Z" fill="#114209"/>
<path d="M538.567 333.699C538.567 333.699 539.264 352.508 521.264 354.738L520.151 352.651C520.151 352.651 537.453 339.569 538.567 333.699Z" fill="#114209"/>
<path d="M533.409 324.244C533.54 344.463 519.031 353.501 519.031 353.501L518.614 353.412L514.445 352.526C515.273 346.324 520.317 338.516 524.737 332.671C527.237 329.487 530.153 326.653 533.409 324.244Z" fill="#114209"/>
<path d="M518.548 352.633C517.904 353.417 517.09 354.043 516.166 354.465C515.885 354.591 515.591 354.689 515.29 354.756C512.646 355.351 511.717 353.472 511.872 350.237C512.122 344.474 515.749 334.484 519.019 327.045C521.366 321.658 525.195 317.578 525.767 317.311C525.731 317.281 525.571 344.51 518.548 352.633Z" fill="#114209"/>
<path d="M515.546 305.02C515.546 305.02 503.545 347.513 513.873 353.923C524.201 360.334 518.197 308.784 515.546 305.02Z" fill="#114209"/>
<path d="M492.502 333.699C492.502 333.699 490.12 352.508 508.131 354.738L509.245 352.651C509.245 352.651 493.634 339.569 492.502 333.699Z" fill="#1B5E32"/>
<path d="M514.987 352.526L510.817 353.412L510.394 353.501C510.394 353.501 497.553 344.451 497.696 324.244C497.696 324.244 500.984 327.765 504.7 332.671C509.12 338.516 514.153 346.324 514.987 352.526Z" fill="#1B5E32"/>
<path opacity="0.1" d="M514.987 352.526L510.817 353.412C506.845 349.933 505.272 340.853 504.7 332.671C509.12 338.516 514.153 346.324 514.987 352.526Z" fill="black"/>
<path d="M516.404 354.465C516.074 354.677 515.701 354.814 515.312 354.864C514.922 354.915 514.526 354.878 514.153 354.756C503.402 352.247 505.362 317.293 505.362 317.293C505.957 317.573 508.28 322.05 510.722 327.759C515.088 337.862 519.853 351.931 516.404 354.465Z" fill="#1B5E32"/>
<path d="M538.567 333.699C538.567 333.699 540.949 352.508 522.938 354.738L521.824 352.651C521.824 352.651 537.453 339.569 538.567 333.699Z" fill="#1B5E32"/>
<path d="M533.409 324.244C533.54 344.463 520.705 353.501 520.705 353.501L520.288 353.412L516.118 352.526C516.952 346.324 521.991 338.516 526.41 332.671C530.115 327.753 533.409 324.244 533.409 324.244Z" fill="#1B5E32"/>
<path opacity="0.1" d="M526.393 332.671C525.857 340.306 524.457 348.726 521.062 352.633C520.825 352.913 520.566 353.174 520.288 353.412L516.118 352.526C516.922 346.324 521.973 338.516 526.393 332.671Z" fill="black"/>
<path d="M520.222 352.633C519.578 353.417 518.763 354.043 517.84 354.465C517.556 354.591 517.261 354.689 516.958 354.756C514.314 355.351 513.384 353.472 513.539 350.237C513.795 344.474 517.417 334.484 520.687 327.045C523.033 321.658 525.189 317.578 525.761 317.311C525.731 317.281 527.244 344.51 520.222 352.633Z" fill="#1B5E32"/>
<path opacity="0.1" d="M516.404 354.465C515.796 354.461 515.204 354.273 514.707 353.923C509.65 350.778 509.549 338.974 510.752 327.759C515.088 337.862 519.853 351.931 516.404 354.465Z" fill="black"/>
<path opacity="0.1" d="M520.222 352.633C519.626 353.888 518.858 354.554 517.84 354.465C517.324 354.396 516.831 354.211 516.398 353.923C515.085 353.021 514.085 351.732 513.539 350.237C513.795 344.474 517.417 334.484 520.687 327.045C521.818 337.386 522.205 348.381 520.222 352.633Z" fill="black"/>
<path d="M515.547 305.02C515.547 305.02 505.219 347.513 515.547 353.923C525.874 360.334 518.197 308.784 515.547 305.02Z" fill="#1B5E32"/>
<path d="M535.362 351.83H492.383V358.936H498.941L499.102 359.775L501.728 373.565H526.714L529.341 359.775L529.502 358.936H535.362V351.83Z" fill="#D4DFEC"/>
<path opacity="0.1" d="M535.345 351.83H492.365V358.936H498.923L499.084 359.775L501.711 373.565H526.696L529.323 359.775L529.484 358.936H535.345V351.83Z" fill="black"/>
<path d="M531.735 356.011L531.014 359.775L528.388 373.565H503.402L500.775 359.775L500.055 356.011H531.735Z" fill="white"/>
<path opacity="0.1" d="M531.735 356.011L531.014 359.775H500.775L500.055 356.011H531.735Z" fill="black"/>
<path d="M537.036 351.83H494.057V358.936H537.036V351.83Z" fill="white"/>
<path d="M170.118 306.346C169.506 307.184 169.017 308.105 168.664 309.081C168.575 309.319 168.486 309.592 168.396 309.854C168.236 309.775 168.065 309.717 167.89 309.682C167.147 309.493 166.379 309.427 165.615 309.485C165.615 309.188 165.645 308.891 165.656 308.552C165.752 305.186 165.353 300.506 162.142 302.486C159.063 304.401 161.261 307.577 163.25 309.622C163.423 309.801 163.59 309.961 163.756 310.122C161.97 311.424 161.6 314.415 161.297 317.549C160.993 320.683 158.319 324.09 156.568 326.052C156.395 326.249 156.228 326.427 156.067 326.593C155.355 326.021 154.528 325.607 153.643 325.38C152.758 325.152 151.834 325.116 150.933 325.273L150.695 324.405C149.265 319.249 146.293 310.318 142.505 308.35L143.006 307.719C144.614 305.614 146.424 302.492 143.75 301.695C141.076 300.899 140.832 304.401 140.98 307.047C140.98 307.374 141.028 307.689 141.058 307.981C140.522 308.006 139.997 308.139 139.515 308.373C139.033 308.608 138.603 308.937 138.253 309.343C138.127 309.188 137.99 309.027 137.842 308.855C135.674 306.292 131.689 302.242 130.486 305.287C129.366 308.141 132.868 311.828 135.334 314.005L135.489 314.135C133.833 320.843 141.052 326.302 144.947 328.693C145.12 328.806 145.287 328.907 145.448 329.002C140.087 335.311 136.769 347.145 136.769 347.145L151.815 349.874C151.815 349.874 161.779 341.293 160.504 333.224H160.606C170.558 331.232 172.822 320.635 171.273 314.344L171.446 314.272C173.258 313.531 174.847 312.332 176.056 310.794C178.819 306.94 172.977 302.57 170.118 306.346Z" fill="#0E431D"/>
<path d="M140.218 310.686L138.461 315.824C138.461 315.824 137.484 315.134 136.251 314.04C133.785 311.888 130.295 308.177 131.403 305.323C132.594 302.254 136.591 306.304 138.765 308.891C139.634 309.913 140.218 310.686 140.218 310.686Z" fill="#1B5E32"/>
<path d="M143.923 307.761C143.388 308.46 142.818 309.131 142.213 309.771C142.062 308.877 141.956 307.976 141.898 307.071C141.755 304.443 142.029 300.952 144.667 301.719C147.306 302.486 145.531 305.656 143.923 307.761Z" fill="#1B5E32"/>
<path d="M166.58 308.57C166.52 310.258 166.359 311.608 166.359 311.608C165.587 311.005 164.854 310.351 164.168 309.652C162.178 307.594 159.998 304.419 163.066 302.516C166.276 300.524 166.669 305.204 166.58 308.57Z" fill="#1B5E32"/>
<path d="M176.955 310.782C175.746 312.32 174.158 313.519 172.345 314.26C171.842 314.481 171.325 314.667 170.797 314.819L168.73 311.917C168.949 310.959 169.235 310.017 169.588 309.099C169.938 308.122 170.427 307.201 171.041 306.363C173.9 302.57 179.737 306.94 176.955 310.782Z" fill="#1B5E32"/>
<path opacity="0.1" d="M138.765 308.879C139.634 309.902 140.218 310.663 140.218 310.663L138.461 315.801C138.461 315.801 137.484 315.111 136.251 314.017C136.526 312.372 137.205 310.821 138.229 309.503C138.407 309.289 138.586 309.081 138.765 308.879Z" fill="black"/>
<path opacity="0.1" d="M143.923 307.761C143.388 308.46 142.818 309.131 142.213 309.771C142.062 308.877 141.956 307.976 141.898 307.071C142.628 307.084 143.337 307.325 143.923 307.761Z" fill="black"/>
<path d="M152.559 328.134L148.193 330.054C147.395 329.656 146.618 329.218 145.864 328.74C141.272 325.921 132.04 318.827 138.229 310.461C144.417 302.094 149.581 317.097 151.612 324.435C152.231 326.629 152.559 328.134 152.559 328.134Z" fill="#1B5E32"/>
<path opacity="0.1" d="M164.167 309.652C164.803 308.996 165.667 308.609 166.58 308.57C166.52 310.258 166.359 311.608 166.359 311.608C165.587 311.005 164.854 310.351 164.167 309.652Z" fill="black"/>
<path opacity="0.1" d="M172.345 314.26C171.842 314.481 171.325 314.667 170.797 314.819L168.73 311.917C168.949 310.959 169.235 310.017 169.588 309.099C170.922 309.878 171.904 311.816 172.345 314.26Z" fill="black"/>
<path d="M161.499 333.212C161.261 333.259 161.011 333.307 160.767 333.343C146.121 335.567 155.936 327.676 155.936 327.676C155.936 327.676 156.597 327.081 157.491 326.082C159.278 324.132 161.916 320.73 162.22 317.578C162.678 312.821 163.209 308.391 168.813 309.699C174.311 310.984 175.359 330.441 161.499 333.212Z" fill="#1B5E32"/>
<path d="M161.231 369.616H133.25V376.96H161.231V369.616Z" fill="#D4DFEC"/>
<path d="M165.359 345.741H128.8V371.376H165.359V345.741Z" fill="#D4DFEC"/>
<path opacity="0.1" d="M161.231 369.616H133.25V376.96H161.231V369.616Z" fill="black"/>
<path opacity="0.1" d="M165.359 345.741H128.8V371.376H165.359V345.741Z" fill="black"/>
<path d="M163.066 369.616H135.084V376.96H163.066V369.616Z" fill="white"/>
<path opacity="0.1" d="M151.612 324.435C152.208 326.629 152.559 328.134 152.559 328.134L148.193 330.054C147.395 329.656 146.618 329.217 145.865 328.74C147.574 326.564 149.504 324.94 151.612 324.435Z" fill="black"/>
<path opacity="0.1" d="M161.499 333.212C161.261 333.259 161.011 333.307 160.767 333.343C146.121 335.567 155.936 327.676 155.936 327.676C155.936 327.676 156.597 327.081 157.491 326.082C160.225 328.264 161.344 330.726 161.499 333.212Z" fill="black"/>
<path d="M137.693 347.192C137.693 347.192 145.894 317.888 157.389 326.915C168.885 335.941 152.714 349.874 152.714 349.874L137.693 347.192Z" fill="#1B5E32"/>
<path opacity="0.1" d="M141.832 315.973C142.339 315.973 142.749 315.563 142.749 315.057C142.749 314.551 142.339 314.141 141.832 314.141C141.326 314.141 140.915 314.551 140.915 315.057C140.915 315.563 141.326 315.973 141.832 315.973Z" fill="#030903"/>
<path opacity="0.1" d="M141.755 320.254C142.261 320.254 142.672 319.844 142.672 319.339C142.672 318.833 142.261 318.423 141.755 318.423C141.248 318.423 140.838 318.833 140.838 319.339C140.838 319.844 141.248 320.254 141.755 320.254Z" fill="#030903"/>
<path opacity="0.1" d="M168.426 316.811C168.933 316.811 169.343 316.401 169.343 315.896C169.343 315.39 168.933 314.98 168.426 314.98C167.919 314.98 167.509 315.39 167.509 315.896C167.509 316.401 167.919 316.811 168.426 316.811Z" fill="#030903"/>
<path opacity="0.1" d="M146.966 338.772C147.473 338.772 147.884 338.362 147.884 337.856C147.884 337.35 147.473 336.94 146.966 336.94C146.46 336.94 146.049 337.35 146.049 337.856C146.049 338.362 146.46 338.772 146.966 338.772Z" fill="#030903"/>
<path opacity="0.1" d="M166.514 323.929C167.021 323.929 167.431 323.519 167.431 323.014C167.431 322.508 167.021 322.098 166.514 322.098C166.008 322.098 165.597 322.508 165.597 323.014C165.597 323.519 166.008 323.929 166.514 323.929Z" fill="#030903"/>
<path opacity="0.1" d="M157.008 333.42C157.515 333.42 157.926 333.01 157.926 332.504C157.926 331.998 157.515 331.588 157.008 331.588C156.502 331.588 156.091 331.998 156.091 332.504C156.091 333.01 156.502 333.42 157.008 333.42Z" fill="#030903"/>
<path opacity="0.1" d="M144.977 317.804C145.484 317.804 145.894 317.394 145.894 316.889C145.894 316.383 145.484 315.973 144.977 315.973C144.47 315.973 144.06 316.383 144.06 316.889C144.06 317.394 144.47 317.804 144.977 317.804Z" fill="#030903"/>
<path opacity="0.1" d="M165.901 319.565C166.407 319.565 166.818 319.155 166.818 318.649C166.818 318.143 166.407 317.733 165.901 317.733C165.394 317.733 164.983 318.143 164.983 318.649C164.983 319.155 165.394 319.565 165.901 319.565Z" fill="#030903"/>
<path opacity="0.1" d="M162.756 326.683C163.262 326.683 163.673 326.273 163.673 325.767C163.673 325.261 163.262 324.851 162.756 324.851C162.249 324.851 161.839 325.261 161.839 325.767C161.839 326.273 162.249 326.683 162.756 326.683Z" fill="#030903"/>
<path opacity="0.1" d="M153.101 338.088C153.608 338.088 154.018 337.678 154.018 337.172C154.018 336.666 153.608 336.256 153.101 336.256C152.594 336.256 152.184 336.666 152.184 337.172C152.184 337.678 152.594 338.088 153.101 338.088Z" fill="#030903"/>
<path opacity="0.1" d="M151.106 333.569C151.612 333.569 152.023 333.159 152.023 332.653C152.023 332.147 151.612 331.737 151.106 331.737C150.599 331.737 150.188 332.147 150.188 332.653C150.188 333.159 150.599 333.569 151.106 333.569Z" fill="#030903"/>
<path opacity="0.1" d="M146.353 323.394C146.859 323.394 147.27 322.984 147.27 322.478C147.27 321.973 146.859 321.563 146.353 321.563C145.846 321.563 145.436 321.973 145.436 322.478C145.436 322.984 145.846 323.394 146.353 323.394Z" fill="#030903"/>
<path opacity="0.1" d="M163.066 369.616H135.084V372.298H163.066V369.616Z" fill="black"/>
<path d="M167.199 345.741H130.641V371.376H167.199V345.741Z" fill="white"/>
<path opacity="0.1" d="M154.328 342.221C154.835 342.221 155.245 341.811 155.245 341.305C155.245 340.799 154.835 340.389 154.328 340.389C153.821 340.389 153.411 340.799 153.411 341.305C153.411 341.811 153.821 342.221 154.328 342.221Z" fill="black"/>
<path opacity="0.1" d="M148.807 343.368C149.313 343.368 149.724 342.958 149.724 342.453C149.724 341.947 149.313 341.537 148.807 341.537C148.3 341.537 147.89 341.947 147.89 342.453C147.89 342.958 148.3 343.368 148.807 343.368Z" fill="black"/>
<defs>
<linearGradient id="paint0_linear" x1="328.919" y1="420.893" x2="328.919" y2="87.6335" gradientUnits="userSpaceOnUse">
<stop stop-color="#808080" stop-opacity="0.25"/>
<stop offset="0.54" stop-color="#808080" stop-opacity="0.12"/>
<stop offset="1" stop-color="#808080" stop-opacity="0.1"/>
</linearGradient>
</defs>
</svg>
